<svg width="15" height="15" viewBox="0 0 15 15" fill="none" xmlns="http://www.w3.org/2000/svg">
<path d="M7.5001 13.2751C7.5001 13.7307 7.13073 14.1001 6.6751 14.1001C6.21947 14.1001 5.8501 13.7307 5.8501 13.2751C5.8501 12.8194 6.21947 12.4501 6.6751 12.4501C7.13073 12.4501 7.5001 12.8194 7.5001 13.2751Z" fill="#7496C2"/>
<path d="M11.9 13.2751C11.9 13.7307 11.5306 14.1001 11.075 14.1001C10.6194 14.1001 10.25 13.7307 10.25 13.2751C10.25 12.8194 10.6194 12.4501 11.075 12.4501C11.5306 12.4501 11.9 12.8194 11.9 13.2751Z" fill="#7496C2"/>
<path d="M14.1002 4.47504C14.1002 6.44628 12.4964 8.05006 10.5252 8.05006C8.55397 8.05006 6.9502 6.44628 6.9502 4.47504C6.9502 2.50388 8.55397 0.900024 10.5252 0.900024C12.4964 0.900024 14.1002 2.50388 14.1002 4.47504ZM12.4502 4.47504C12.4502 4.17148 12.2038 3.92504 11.9002 3.92504H11.0752V3.10004C11.0752 2.79647 10.8288 2.55003 10.5252 2.55003C10.2216 2.55003 9.97521 2.79647 9.97521 3.10004V3.92504H9.15021C8.84664 3.92504 8.6002 4.17148 8.6002 4.47504C8.6002 4.77861 8.84664 5.02505 9.15021 5.02505H9.97521V5.85005C9.97521 6.15362 10.2216 6.40005 10.5252 6.40005C10.8288 6.40005 11.0752 6.15362 11.0752 5.85005V5.02505H11.9002C12.2038 5.02505 12.4502 4.77861 12.4502 4.47504Z" fill="#7496C2"/>
<path d="M5.84994 4.47495C5.84994 4.38201 5.85813 4.2913 5.86362 4.19995H4.39734L4.18839 3.20673C4.04198 2.51366 3.42274 2.00877 2.71495 2.00599L1.314 1.99994C1.31344 1.99994 1.31297 1.99994 1.31241 1.99994C1.08523 1.99994 0.900942 2.18311 0.899907 2.41085C0.898793 2.63843 1.08308 2.82391 1.31082 2.82494L2.71105 2.83099C3.03276 2.83203 3.31437 3.06191 3.38097 3.37654L3.65876 4.6972L4.6542 9.42498H4.33743C3.65486 9.42498 3.09992 9.97991 3.09992 10.6625C3.09992 11.3451 3.65486 11.9 4.33743 11.9H12.5875C12.8152 11.9 13 11.7152 13 11.4875C13 11.2598 12.8152 11.075 12.5875 11.075H4.33743C4.10969 11.075 3.92492 10.8902 3.92492 10.6625C3.92492 10.4347 4.10969 10.25 4.33743 10.25H12.5875C12.7822 10.25 12.951 10.113 12.9911 9.92222L13.3569 8.18588C12.5699 8.78808 11.5898 9.14998 10.525 9.14998C7.94706 9.14998 5.84994 7.05285 5.84994 4.47495Z" fill="#7496C2"/>
</svg>
