<svg width="29" height="28" viewBox="0 0 29 28" fill="none" xmlns="http://www.w3.org/2000/svg">
<path d="M19.5747 4.43322C18.9633 3.84547 18.1356 3.51548 17.2729 3.51548C16.4101 3.51548 15.5824 3.84547 14.971 4.43322L14.4876 4.87656L14.0043 4.40989C13.7013 4.1171 13.3415 3.88483 12.9455 3.72636C12.5495 3.56789 12.1251 3.48633 11.6964 3.48633C11.2677 3.48633 10.8433 3.56789 10.4473 3.72636C10.0512 3.88483 9.69147 4.1171 9.38848 4.40989C8.13181 5.65822 8.05931 7.74656 9.6664 9.33322L14.4997 13.9999L19.3331 9.33322C20.9401 7.74656 20.8676 5.65822 19.5747 4.43322Z" stroke="#7496C2" stroke-width="1.5" stroke-linecap="round" stroke-linejoin="round"/>
<path d="M9.66655 9.33321C8.02322 7.78154 5.8603 7.85154 4.59155 9.09988C3.9828 9.69022 3.64104 10.4893 3.64104 11.3224C3.64104 12.1554 3.9828 12.9545 4.59155 13.5449L5.05072 14.0115L4.56738 14.4782C4.26414 14.7708 4.02358 15.1181 3.85945 15.5005C3.69532 15.8828 3.61084 16.2927 3.61084 16.7065C3.61084 17.1204 3.69532 17.5303 3.85945 17.9126C4.02358 18.295 4.26414 18.6423 4.56738 18.9349C5.8603 20.1482 8.02322 20.2182 9.66655 18.6665" stroke="#7496C2" stroke-width="1.5" stroke-linecap="round" stroke-linejoin="round"/>
<path d="M19.3335 18.6665C20.9768 20.2181 23.1397 20.1481 24.4085 18.8998C25.0172 18.3095 25.359 17.5104 25.359 16.6773C25.359 15.8443 25.0172 15.0452 24.4085 14.4548L23.9493 13.9881L24.4327 13.5215C24.7359 13.2289 24.9765 12.8816 25.1406 12.4992C25.3047 12.1169 25.3892 11.707 25.3892 11.2931C25.3892 10.8793 25.3047 10.4694 25.1406 10.0871C24.9765 9.70472 24.7359 9.35735 24.4327 9.06481C23.1397 7.85148 20.9768 7.78148 19.3335 9.33314" stroke="#7496C2" stroke-width="1.5" stroke-linecap="round" stroke-linejoin="round"/>
<path d="M9.42487 23.5669C10.0363 24.1547 10.864 24.4846 11.7267 24.4846C12.5895 24.4846 13.4172 24.1547 14.0286 23.5669L14.512 23.1236L14.9953 23.5902C15.2983 23.883 15.6581 24.1153 16.0541 24.2738C16.4501 24.4322 16.8745 24.5138 17.3032 24.5138C17.7319 24.5138 18.1563 24.4322 18.5524 24.2738C18.9484 24.1153 19.3081 23.883 19.6111 23.5902C20.892 22.3536 20.9645 20.2652 19.3574 18.6786L14.524 14.0119L9.69071 18.6786C8.08362 20.2652 8.15612 22.3536 9.44904 23.5786L9.42487 23.5669Z" stroke="#7496C2" stroke-width="1.5" stroke-linecap="round" stroke-linejoin="round"/>
<path d="M8.45817 19.8333L2.4165 25.6666" stroke="#7496C2" stroke-width="1.5" stroke-linecap="round" stroke-linejoin="round"/>
</svg>
