<svg width="33" height="28" viewBox="0 0 33 28" fill="none" xmlns="http://www.w3.org/2000/svg">
<path d="M26.4117 12.7648C26.4117 5.71511 20.6966 6.10352e-05 13.647 6.10352e-05C6.59731 6.10352e-05 0.882263 5.71511 0.882263 12.7648C0.882263 19.8144 6.59731 25.5295 13.647 25.5295C20.6966 25.5295 26.4117 19.8144 26.4117 12.7648Z" fill="#DEC11A"/>
<path d="M24.0702 12.7646C24.0702 18.5215 19.4033 23.1877 13.647 23.1877C13.5802 23.1877 13.5138 23.1873 13.4473 23.186C12.8157 23.1739 12.1985 23.106 11.5997 22.9866C10.8033 22.8281 10.0393 22.5787 9.31986 22.2494C8.35399 21.8086 7.46753 21.2244 6.6871 20.5237C6.30436 20.1804 5.94731 19.809 5.61873 19.4129C5.55133 19.3318 5.48546 19.2496 5.42067 19.1662C4.65025 18.1775 4.05389 17.0459 3.67853 15.8186C3.38273 14.8525 3.22375 13.8274 3.22375 12.7646C3.22375 12.6155 3.22699 12.4665 3.23345 12.3186C3.46076 6.91704 7.79872 2.57877 13.2007 2.35146C13.3483 2.34484 13.4973 2.34177 13.647 2.34177C14.7089 2.34177 15.7345 2.50059 16.7004 2.79608C17.9281 3.17144 19.06 3.76795 20.0486 4.53868C20.1314 4.60347 20.2139 4.66949 20.2949 4.73644C20.6912 5.06517 21.0625 5.42237 21.406 5.80496C22.1067 6.58523 22.6911 7.472 23.132 8.43741C23.461 9.15704 23.7105 9.92099 23.8689 10.7173C23.9888 11.3159 24.0566 11.9337 24.0683 12.565C24.0696 12.6312 24.0702 12.698 24.0702 12.7646Z" fill="#FFD000"/>
<path d="M16.7004 2.79608L3.67853 15.8186C3.38273 14.8525 3.22375 13.8274 3.22375 12.7646C3.22375 12.6155 3.22699 12.4665 3.23345 12.3186L13.2007 2.35146C13.3483 2.34484 13.4973 2.34177 13.647 2.34177C14.7089 2.34177 15.7345 2.50059 16.7004 2.79608Z" fill="#DEC11A"/>
<path d="M23.8689 10.7173L11.5998 22.9866C10.8033 22.8281 10.0394 22.5788 9.3199 22.2494C8.35403 21.8087 7.46757 21.2245 6.68715 20.5238C6.3044 20.1804 5.94736 19.8091 5.61878 19.4129C5.55138 19.3318 5.48551 19.2496 5.42072 19.1662L20.0487 4.53873C20.1315 4.60352 20.214 4.66954 20.2949 4.73649C20.6912 5.06522 21.0626 5.42242 21.4061 5.80501C22.1068 6.58528 22.6911 7.47205 23.132 8.43746C23.4611 9.15709 23.7106 9.92104 23.8689 10.7173Z" fill="#DEC11A"/>
<path d="M13.647 23.1877C13.5804 23.1877 13.5136 23.1869 13.4472 23.186C11.9767 23.1584 10.5807 22.826 9.31966 22.2493C8.3541 21.8086 7.46749 21.2244 6.68706 20.5237C6.30447 20.1803 5.94727 19.809 5.61885 19.4128C4.12295 17.6082 3.22387 15.2914 3.22387 12.7645C3.22387 10.2851 4.09017 8.00813 5.5359 6.21906C3.91072 8.05707 2.92377 10.4728 2.92377 13.1193C2.92377 15.6461 3.823 17.9629 5.3189 19.7677C5.64717 20.164 6.00452 20.5354 6.38696 20.8784C7.16754 21.579 8.054 22.1636 9.01971 22.6044C10.2808 23.1809 11.6766 23.5132 13.1473 23.5407C13.2136 23.5418 13.2804 23.5426 13.3471 23.5426C16.6239 23.5426 19.5472 22.03 21.458 19.6652C19.5483 21.8254 16.757 23.1877 13.647 23.1877Z" fill="#FFE800"/>
<path d="M32.9998 15.2353C32.9998 8.18569 27.2848 2.47064 20.2351 2.47064C13.1854 2.47064 7.4704 8.18569 7.4704 15.2353C7.4704 22.285 13.1854 28.0001 20.2351 28.0001C27.2848 28.0001 32.9998 22.285 32.9998 15.2353Z" fill="#DEC11A"/>
<path d="M30.6584 15.2352C30.6584 20.9921 25.9916 25.6583 20.2353 25.6583C20.1685 25.6583 20.102 25.6578 20.0355 25.6566C19.4039 25.6444 18.7868 25.5766 18.188 25.4572C17.3915 25.2986 16.6276 25.0493 15.9081 24.72C14.9422 24.2792 14.0558 23.695 13.2754 22.9943C12.8926 22.651 12.5356 22.2796 12.207 21.8835C12.1396 21.8024 12.0737 21.7202 12.0089 21.6368C11.2385 20.6481 10.6421 19.5165 10.2668 18.2891C9.97099 17.3231 9.81201 16.298 9.81201 15.2352C9.81201 15.086 9.81524 14.9371 9.82171 14.7892C10.049 9.38762 14.387 5.04935 19.789 4.82204C19.9366 4.81543 20.0856 4.81235 20.2353 4.81235C21.2972 4.81235 22.3228 4.97117 23.2887 5.26666C24.5163 5.64202 25.6482 6.23853 26.6369 7.00926C26.7197 7.07405 26.8022 7.14007 26.8831 7.20702C27.2794 7.53575 27.6508 7.89295 27.9943 8.27554C28.695 9.05581 29.2793 9.94258 29.7203 10.908C30.0493 11.6276 30.2988 12.3916 30.4571 13.1878C30.577 13.7865 30.6449 14.4043 30.6566 15.0356C30.6578 15.1017 30.6584 15.1685 30.6584 15.2352Z" fill="#FFD000"/>
<path d="M23.2887 5.26666L10.2668 18.2891C9.97099 17.3231 9.81201 16.298 9.81201 15.2352C9.81201 15.086 9.81524 14.9371 9.82171 14.7892L19.789 4.82204C19.9366 4.81543 20.0856 4.81235 20.2353 4.81235C21.2972 4.81235 22.3228 4.97117 23.2887 5.26666Z" fill="#DEC11A"/>
<path d="M30.4572 13.1879L18.188 25.4572C17.3916 25.2987 16.6276 25.0494 15.9082 24.72C14.9423 24.2793 14.0558 23.6951 13.2754 22.9944C12.8927 22.651 12.5356 22.2796 12.207 21.8835C12.1396 21.8024 12.0738 21.7202 12.009 21.6368L26.6369 7.00931C26.7197 7.0741 26.8022 7.14012 26.8832 7.20707C27.2795 7.5358 27.6508 7.893 27.9943 8.27559C28.695 9.05586 29.2794 9.94263 29.7203 10.908C30.0493 11.6277 30.2988 12.3916 30.4572 13.1879Z" fill="#DEC11A"/>
<path d="M20.2353 25.6583C20.1686 25.6583 20.1018 25.6575 20.0355 25.6566C18.565 25.629 17.169 25.2966 15.9079 24.7199C14.9424 24.2792 14.0557 23.695 13.2753 22.9943C12.8927 22.6509 12.5355 22.2795 12.2071 21.8834C10.7112 20.0788 9.81213 17.762 9.81213 15.2351C9.81213 12.7557 10.6784 10.4787 12.1242 8.68964C10.499 10.5277 9.51202 12.9434 9.51202 15.5899C9.51202 18.1167 10.4113 20.4335 11.9072 22.2383C12.2354 22.6346 12.5928 23.006 12.9752 23.349C13.7558 24.0495 14.6423 24.6342 15.608 25.075C16.869 25.6515 18.2649 25.9837 19.7355 26.0113C19.8019 26.0124 19.8687 26.0131 19.9353 26.0131C23.2121 26.0131 26.1354 24.5006 28.0463 22.1358C26.1365 24.2959 23.3453 25.6583 20.2353 25.6583Z" fill="#FFE800"/>
<circle cx="19.9999" cy="15.0001" r="12.5" stroke="#FFD000"/>
</svg>
