<svg width="30" height="18" viewBox="0 0 30 18" fill="none" xmlns="http://www.w3.org/2000/svg">
<path d="M27.0225 17.5947H3.34862C2.97599 17.5947 2.67383 17.2925 2.67383 16.9191C2.67383 10.6812 8.28672 5.60608 15.1857 5.60608C22.0848 5.60608 27.6973 10.6812 27.6973 16.9191C27.6973 17.2925 27.3951 17.5947 27.0225 17.5947ZM4.04834 16.2439H26.3228C25.9322 11.0644 21.086 6.95606 15.1857 6.95606C9.2847 6.95606 4.43888 11.0644 4.04834 16.2439Z" fill="#7496C2"/>
<path d="M29.3253 17.5948H27.0225C26.6503 17.5948 26.3481 17.2926 26.3481 16.9192C26.3481 16.5458 26.6503 16.2437 27.0225 16.2437H29.3253C29.6984 16.2437 30.0001 16.5458 30.0001 16.9192C30.0001 17.2926 29.6984 17.5948 29.3253 17.5948Z" fill="#7496C2"/>
<path d="M3.34885 17.5948H0.794521C0.421886 17.5948 0.120117 17.2926 0.120117 16.9192C0.120117 16.5458 0.421886 16.2437 0.794521 16.2437H3.34885C3.72148 16.2437 4.02364 16.5458 4.02364 16.9192C4.02364 17.2926 3.72148 17.5948 3.34885 17.5948Z" fill="#7496C2"/>
<path d="M27.0225 17.5948H3.34862C2.97599 17.5948 2.67383 17.2926 2.67383 16.9192C2.67383 16.5458 2.9756 16.2437 3.34862 16.2437H27.0225C27.3951 16.2437 27.6973 16.5458 27.6973 16.9192C27.6973 17.2926 27.3951 17.5948 27.0225 17.5948Z" fill="#7496C2"/>
<path d="M15.4121 6.9569C13.6057 6.9569 12.1362 5.48699 12.1362 3.67833C12.1362 1.87083 13.6057 0.400146 15.4121 0.400146C17.2184 0.400146 18.6879 1.87044 18.6879 3.67833C18.6879 5.48699 17.2184 6.9569 15.4121 6.9569ZM15.4121 1.75051C14.3495 1.75051 13.4854 2.6161 13.4854 3.67833C13.4854 4.74172 14.3495 5.60692 15.4121 5.60692C16.4747 5.60692 17.3387 4.74172 17.3387 3.67833C17.3387 2.6161 16.4743 1.75051 15.4121 1.75051Z" fill="#7496C2"/>
<path d="M6.1397 14.9361C6.12218 14.9361 6.10427 14.9353 6.08597 14.9337C5.7145 14.9041 5.43726 14.5786 5.46647 14.2068C5.76473 10.4329 10.3115 8.51288 10.5054 8.43228C10.8488 8.2921 11.2429 8.45409 11.3858 8.7983C11.5283 9.14251 11.3648 9.53734 11.0213 9.68024C10.9816 9.69698 7.04462 11.3678 6.81216 14.3138C6.78373 14.6674 6.48859 14.9361 6.1397 14.9361Z" fill="#7496C2"/>
</svg>
