<svg width="15" height="15" viewBox="0 0 15 15" fill="none" xmlns="http://www.w3.org/2000/svg">
<path d="M3.58931 6.28744C3.87004 5.4381 4.41182 4.69912 5.13737 4.17592C5.86293 3.65271 6.73518 3.372 7.6297 3.37384C8.6437 3.37384 9.5605 3.73384 10.2805 4.32304L12.3757 2.22844C11.0989 1.11544 9.4627 0.428436 7.6297 0.428436C4.79171 0.428436 2.34851 2.04724 1.17371 4.41844L3.58931 6.28744Z" fill="white"/>
<path d="M10.0538 11.2362C9.39975 11.658 8.56935 11.883 7.62975 11.883C6.73879 11.8849 5.86983 11.6064 5.14589 11.087C4.42195 10.5677 3.87972 9.83379 3.59595 8.98923L1.17195 10.8294C1.7667 12.0332 2.68711 13.0461 3.82864 13.753C4.97018 14.4599 6.28707 14.8324 7.62975 14.8284C9.38955 14.8284 11.0708 14.2026 12.3302 13.0284L10.0544 11.2362H10.0538Z" fill="white"/>
<path d="M12.3301 13.0284C13.6471 11.7996 14.5021 9.97084 14.5021 7.62844C14.5021 7.20244 14.4367 6.74464 14.3389 6.31924H7.62971V9.10144H11.4913C11.3011 10.0368 10.7893 10.761 10.0543 11.2362L12.3301 13.0284Z" fill="white"/>
<path d="M3.59591 8.98923C3.44912 8.55057 3.37455 8.09099 3.37511 7.62843C3.37511 7.15923 3.45011 6.70863 3.58931 6.28743L1.17371 4.41843C0.679538 5.41604 0.424794 6.51514 0.429712 7.62843C0.429712 8.78043 0.696712 9.86643 1.17191 10.8294L3.59591 8.98923Z" fill="white"/>
</svg>
