<svg width="18" height="17" viewBox="0 0 18 17" fill="none" xmlns="http://www.w3.org/2000/svg">
<path d="M0.200195 2.50005C0.200195 1.91657 0.43198 1.35699 0.84456 0.944414C1.25714 0.531834 1.81672 0.300049 2.4002 0.300049H10.1002C10.6837 0.300049 11.2432 0.531834 11.6558 0.944414C12.0684 1.35699 12.3002 1.91657 12.3002 2.50005V6.90005C12.3002 7.48353 12.0684 8.04311 11.6558 8.45569C11.2432 8.86827 10.6837 9.10005 10.1002 9.10005H7.9002L4.6002 12.4001V9.10005H2.4002C1.81672 9.10005 1.25714 8.86827 0.84456 8.45569C0.43198 8.04311 0.200195 7.48353 0.200195 6.90005V2.50005Z" fill="#7496C2"/>
<path d="M14.5 4.69995V6.89995C14.5 8.0669 14.0364 9.18606 13.2112 10.0112C12.3861 10.8364 11.2669 11.3 10.1 11.3H8.81076L6.86816 13.2437C7.17616 13.4076 7.52706 13.5 7.89996 13.5H10.1L13.4 16.7999V13.5H15.6C16.1834 13.5 16.743 13.2682 17.1556 12.8556C17.5682 12.443 17.8 11.8834 17.8 11.3V6.89995C17.8 6.31647 17.5682 5.7569 17.1556 5.34432C16.743 4.93174 16.1834 4.69995 15.6 4.69995H14.5Z" fill="#7496C2"/>
</svg>
